<svg width="21" height="20" viewBox="0 0 21 20" fill="none" xmlns="http://www.w3.org/2000/svg">
<g clip-path="url(#clip0_0_662)">
<path d="M10.5 7.5C9.83696 7.5 9.20107 7.76339 8.73223 8.23223C8.26339 8.70107 8 9.33696 8 10C8 10.663 8.26339 11.2989 8.73223 11.7678C9.20107 12.2366 9.83696 12.5 10.5 12.5C11.163 12.5 11.7989 12.2366 12.2678 11.7678C12.7366 11.2989 13 10.663 13 10C13 9.33696 12.7366 8.70107 12.2678 8.23223C11.7989 7.76339 11.163 7.5 10.5 7.5Z" stroke="#5C5C5C" stroke-width="1.66667" stroke-linecap="round" stroke-linejoin="round"/>
<path d="M16.6666 12.5C16.5557 12.7513 16.5226 13.0301 16.5716 13.3005C16.6207 13.5708 16.7495 13.8202 16.9416 14.0166L16.9916 14.0666C17.1466 14.2214 17.2695 14.4052 17.3534 14.6076C17.4373 14.8099 17.4805 15.0268 17.4805 15.2458C17.4805 15.4648 17.4373 15.6817 17.3534 15.884C17.2695 16.0864 17.1466 16.2702 16.9916 16.425C16.8369 16.5799 16.653 16.7029 16.4507 16.7867C16.2484 16.8706 16.0315 16.9138 15.8125 16.9138C15.5935 16.9138 15.3766 16.8706 15.1742 16.7867C14.9719 16.7029 14.7881 16.5799 14.6333 16.425L14.5833 16.375C14.3869 16.1829 14.1375 16.054 13.8671 16.005C13.5968 15.956 13.318 15.989 13.0666 16.1C12.8202 16.2056 12.61 16.381 12.4619 16.6046C12.3138 16.8282 12.2344 17.0902 12.2333 17.3583V17.5C12.2333 17.942 12.0577 18.3659 11.7452 18.6785C11.4326 18.991 11.0087 19.1666 10.5666 19.1666C10.1246 19.1666 9.7007 18.991 9.38813 18.6785C9.07557 18.3659 8.89998 17.942 8.89998 17.5V17.425C8.89353 17.1491 8.80424 16.8816 8.64374 16.6572C8.48323 16.4328 8.25893 16.2619 7.99998 16.1666C7.74863 16.0557 7.46982 16.0226 7.19949 16.0716C6.92916 16.1207 6.67971 16.2495 6.48331 16.4416L6.43331 16.4916C6.27852 16.6466 6.09471 16.7695 5.89238 16.8534C5.69005 16.9373 5.47317 16.9805 5.25415 16.9805C5.03512 16.9805 4.81824 16.9373 4.61591 16.8534C4.41358 16.7695 4.22977 16.6466 4.07498 16.4916C3.92002 16.3369 3.79709 16.153 3.71321 15.9507C3.62934 15.7484 3.58617 15.5315 3.58617 15.3125C3.58617 15.0935 3.62934 14.8766 3.71321 14.6742C3.79709 14.4719 3.92002 14.2881 4.07498 14.1333L4.12498 14.0833C4.31709 13.8869 4.44597 13.6375 4.49498 13.3671C4.544 13.0968 4.51091 12.818 4.39998 12.5666C4.29434 12.3202 4.11894 12.11 3.89537 11.9619C3.67179 11.8138 3.4098 11.7344 3.14165 11.7333H2.99998C2.55795 11.7333 2.13403 11.5577 1.82147 11.2452C1.50891 10.9326 1.33331 10.5087 1.33331 10.0666C1.33331 9.62462 1.50891 9.2007 1.82147 8.88813C2.13403 8.57557 2.55795 8.39998 2.99998 8.39998H3.07498C3.35081 8.39353 3.61832 8.30424 3.84273 8.14374C4.06714 7.98323 4.23808 7.75893 4.33331 7.49998C4.44424 7.24863 4.47733 6.96982 4.42832 6.69949C4.3793 6.42916 4.25043 6.17971 4.05831 5.98331L4.00831 5.93331C3.85335 5.77852 3.73042 5.59471 3.64655 5.39238C3.56267 5.19005 3.5195 4.97317 3.5195 4.75415C3.5195 4.53512 3.56267 4.31824 3.64655 4.11591C3.73042 3.91358 3.85335 3.72977 4.00831 3.57498C4.1631 3.42002 4.34692 3.29709 4.54925 3.21321C4.75158 3.12934 4.96845 3.08617 5.18748 3.08617C5.40651 3.08617 5.62338 3.12934 5.82571 3.21321C6.02804 3.29709 6.21186 3.42002 6.36665 3.57498L6.41665 3.62498C6.61305 3.81709 6.86249 3.94597 7.13282 3.99498C7.40315 4.044 7.68197 4.01091 7.93331 3.89998H7.99998C8.24645 3.79434 8.45666 3.61894 8.60472 3.39537C8.75279 3.17179 8.83224 2.9098 8.83331 2.64165V2.49998C8.83331 2.05795 9.00891 1.63403 9.32147 1.32147C9.63403 1.00891 10.058 0.833313 10.5 0.833313C10.942 0.833313 11.3659 1.00891 11.6785 1.32147C11.9911 1.63403 12.1666 2.05795 12.1666 2.49998V2.57498C12.1677 2.84313 12.2472 3.10513 12.3952 3.3287C12.5433 3.55228 12.7535 3.72768 13 3.83331C13.2513 3.94424 13.5301 3.97733 13.8005 3.92832C14.0708 3.8793 14.3202 3.75043 14.5166 3.55831L14.5666 3.50831C14.7214 3.35335 14.9052 3.23042 15.1076 3.14655C15.3099 3.06267 15.5268 3.0195 15.7458 3.0195C15.9648 3.0195 16.1817 3.06267 16.384 3.14655C16.5864 3.23042 16.7702 3.35335 16.925 3.50831C17.0799 3.6631 17.2029 3.84692 17.2867 4.04925C17.3706 4.25158 17.4138 4.46845 17.4138 4.68748C17.4138 4.90651 17.3706 5.12338 17.2867 5.32571C17.2029 5.52804 17.0799 5.71186 16.925 5.86665L16.875 5.91665C16.6829 6.11305 16.554 6.36249 16.505 6.63282C16.456 6.90315 16.489 7.18197 16.6 7.43331V7.49998C16.7056 7.74645 16.881 7.95666 17.1046 8.10472C17.3282 8.25279 17.5902 8.33224 17.8583 8.33331H18C18.442 8.33331 18.8659 8.50891 19.1785 8.82147C19.491 9.13403 19.6666 9.55795 19.6666 9.99998C19.6666 10.442 19.491 10.8659 19.1785 11.1785C18.8659 11.4911 18.442 11.6666 18 11.6666H17.925C17.6568 11.6677 17.3948 11.7472 17.1713 11.8952C16.9477 12.0433 16.7723 12.2535 16.6666 12.5Z" stroke="#5C5C5C" stroke-width="1.66667" stroke-linecap="round" stroke-linejoin="round"/>
</g>
<defs>
<clipPath id="clip0_0_662">
<rect width="20" height="20" fill="white" transform="translate(0.5)"/>
</clipPath>
</defs>
</svg>
